HIERARCHY
ROOT Hips
{
	OFFSET 0.000000 0.000000 0.000000
	CHANNELS 6 Xposition Yposition Zposition Zrotation Yrotation Xrotation 
	JOINT LHipJoint
	{
		OFFSET 0.000000 0.000000 0.000000
		CHANNELS 3 Zrotation Yrotation Xrotation
		JOINT LeftUpLeg
		{
			OFFSET 1.363060 -1.794630 0.839290
			CHANNELS 3 Zrotation Yrotation Xrotation
			JOINT LeftLeg
			{
				OFFSET 2.448110 -6.726130 0.000000
				CHANNELS 3 Zrotation Yrotation Xrotation
				JOINT LeftFoot
				{
					OFFSET 2.562200 -7.039590 0.000000
					CHANNELS 3 Zrotation Yrotation Xrotation
					JOINT LeftToeBase
					{
						OFFSET 0.157640 -0.433110 2.322550
						CHANNELS 3 Zrotation Yrotation Xrotation
						End Site
						{
							OFFSET 0.000000 0.000000 0.000000
						}
					}
				}
			}
		}
	}
	JOINT RHipJoint
	{
		OFFSET 0.000000 0.000000 0.000000
		CHANNELS 3 Zrotation Yrotation Xrotation
		JOINT RightUpLeg
		{
			OFFSET -1.305520 -1.794630 0.839290
			CHANNELS 3 Zrotation Yrotation Xrotation
			JOINT RightLeg
			{
				OFFSET -2.542530 -6.985550 0.000000
				CHANNELS 3 Zrotation Yrotation Xrotation
				JOINT RightFoot
				{
					OFFSET -2.568260 -7.056230 0.000000
					CHANNELS 3 Zrotation Yrotation Xrotation
					JOINT RightToeBase
					{
						OFFSET -0.164730 -0.452590 2.363150
						CHANNELS 3 Zrotation Yrotation Xrotation
						End Site
						{
							OFFSET 0.000000 0.000000 0.000000
						}
					}
				}
			}
		}
	}
	JOINT LowerBack
	{
		OFFSET 0.000000 0.000000 0.000000
		CHANNELS 3 Zrotation Yrotation Xrotation
		JOINT Spine
		{
			OFFSET 0.028270 2.035590 -0.193380
			CHANNELS 3 Zrotation Yrotation Xrotation
			JOINT Spine1
			{
				OFFSET 0.056720 2.048850 -0.042750
				CHANNELS 3 Zrotation Yrotation Xrotation
				JOINT Neck
				{
					OFFSET 0.000000 0.000000 0.000000
					CHANNELS 3 Zrotation Yrotation Xrotation
					JOINT Neck1
					{
						OFFSET -0.054170 1.746240 0.172020
						CHANNELS 3 Zrotation Yrotation Xrotation
						JOINT Head
						{
							OFFSET 0.104070 1.761360 -0.123970
							CHANNELS 3 Zrotation Yrotation Xrotation
							End Site
							{
								OFFSET 0.000000 0.000000 0.000000
							}
						}
					}
				}
				JOINT LeftShoulder
				{
					OFFSET 0.000000 0.000000 0.000000
					CHANNELS 3 Zrotation Yrotation Xrotation
					JOINT LeftArm
					{
						OFFSET 3.362410 1.200890 -0.311210
						CHANNELS 3 Zrotation Yrotation Xrotation
						JOINT LeftForeArm
						{
							OFFSET 4.983000 -0.000000 -0.000000
							CHANNELS 3 Zrotation Yrotation Xrotation
							JOINT LeftHand
							{
								OFFSET 3.483560 -0.000000 -0.000000
								CHANNELS 3 Zrotation Yrotation Xrotation
								JOINT LeftFingerBase
								{
									OFFSET 0.000000 0.000000 0.000000
									CHANNELS 3 Zrotation Yrotation Xrotation
									JOINT LeftHandIndex1
									{
										OFFSET 0.715260 -0.000000 -0.000000
										CHANNELS 3 Zrotation Yrotation Xrotation
										End Site
										{
											OFFSET 0.000000 0.000000 0.000000
										}
									}
								}
								JOINT LThumb
								{
									OFFSET 0.000000 0.000000 0.000000
									CHANNELS 3 Zrotation Yrotation Xrotation
									End Site
									{
										OFFSET 0.000000 0.000000 0.000000
									}
								}
							}
						}
					}
				}
				JOINT RightShoulder
				{
					OFFSET 0.000000 0.000000 0.000000
					CHANNELS 3 Zrotation Yrotation Xrotation
					JOINT RightArm
					{
						OFFSET -3.136600 1.374050 -0.404650
						CHANNELS 3 Zrotation Yrotation Xrotation
						JOINT RightForeArm
						{
							OFFSET -5.241900 -0.000000 -0.000000
							CHANNELS 3 Zrotation Yrotation Xrotation
							JOINT RightHand
							{
								OFFSET -3.444170 -0.000000 -0.000000
								CHANNELS 3 Zrotation Yrotation Xrotation
								JOINT RightFingerBase
								{
									OFFSET 0.000000 0.000000 0.000000
									CHANNELS 3 Zrotation Yrotation Xrotation
									JOINT RightHandIndex1
									{
										OFFSET -0.622530 -0.000000 -0.000000
										CHANNELS 3 Zrotation Yrotation Xrotation
										End Site
										{
											OFFSET 0.000000 0.000000 0.000000
										}
									}
								}
								JOINT RThumb
								{
									OFFSET 0.000000 0.000000 0.000000
									CHANNELS 3 Zrotation Yrotation Xrotation
									End Site
									{
										OFFSET 0.000000 0.000000 0.000000
									}
								}
							}
						}
					}
				}
			}
		}
	}
}
MOTION
Frames: 12
Frame Time: 0.008333
1.747108 17.226633 3.261734 6.024300 26.185346 26.989663 -8.572953 1.189003 5.155115 -8.240056 -3.731426 -38.995547 -3.972837 -1.223414 5.084471 -1.093782 -8.115972 2.712988 -0.989900 0.000000 -45.966700 10.420862 -2.636355 3.827799 7.917850 9.105771 -11.907316 1.602324 -0.842581 23.777461 1.162858 10.904813 -2.481837 -179.257600 -0.000000 -5.082299 -2.285027 0.257755 -9.225831 -1.104244 0.111981 -4.251403 -5.175111 0.043080 1.828475 9.084488 -9.700225 -5.830841 -2.969390 -0.256062 0.525047 0.000000 0.000000 0.000000 -0.067764 14.048406 -0.405981 -65.763949 15.191097 12.251374 -0.201446 -86.243682 -0.012921 5.283740 0.965811 0.040097 -0.127063 0.162431 -0.000000 0.000000 0.000000 0.000000 0.000000 0.000000 0.000000 11.622262 -3.954537 0.083299 65.784784 25.506577 41.070818 179.669731 88.550580 -179.943218 10.769369 2.648743 0.285594 -0.144937 -0.340283 0.000000 0.000000 0.000000 0.000000 0.000000 0.000000 0.000000 
1.847104 17.160685 3.382755 5.938134 25.413174 26.514032 -8.626349 1.265326 5.168916 -8.188913 -3.722919 -39.058071 -3.909915 -1.064124 6.403598 -1.085414 -8.178503 2.611752 -0.996600 0.000000 -45.450600 10.524482 -2.733933 3.627065 7.722573 7.991578 -11.645116 1.517902 -0.977513 25.162609 1.178255 11.261076 -2.047245 0.830600 -0.000000 -3.591700 -2.365819 0.214228 -9.180994 -1.143656 0.076609 -4.249801 -5.304134 0.014404 1.791899 9.360038 -9.862124 -5.786026 -3.007364 -0.259754 0.539030 0.000000 0.000000 0.000000 0.111854 13.989226 -0.440558 -65.723573 15.399684 12.066164 -0.195070 -86.374800 -0.013380 5.522437 0.853960 0.036231 -0.130257 0.162987 -0.000000 0.000000 0.000000 0.000000 0.000000 0.000000 0.000000 11.967096 -4.087726 -0.046195 66.018816 25.105072 39.903136 179.669055 88.498776 -179.942510 10.646193 2.931487 0.310052 -0.143645 -0.350995 0.000000 0.000000 0.000000 0.000000 0.000000 0.000000 0.000000 
1.943387 17.093969 3.506889 5.923966 24.672772 26.084173 -8.661229 1.368841 5.170779 -8.272390 -3.679457 -39.240687 -3.849511 -0.870419 8.174899 -1.062309 -8.161507 2.259434 -0.964100 0.000000 -44.670000 10.664486 -2.834315 3.439711 7.406763 6.793036 -11.516270 1.393030 -1.120495 26.610951 1.187596 11.598576 -1.216581 0.992400 0.000001 -15.003600 -2.526535 0.126272 -9.168641 -1.196783 0.004487 -4.251085 -5.440647 -0.051704 1.765803 9.694293 -10.038474 -5.739305 -3.047847 -0.263656 0.553627 0.000000 0.000000 0.000000 0.281521 13.935824 -0.474616 -65.629137 15.580811 11.865715 -0.189882 -86.495418 -0.013897 5.780302 0.756697 0.032770 -0.133985 0.163330 0.000000 0.000000 0.000000 0.000000 0.000000 0.000000 0.000000 12.389356 -4.257904 -0.183224 66.286592 24.742377 38.731397 179.677960 88.540792 -179.942394 10.375294 3.253031 0.332845 -0.138270 -0.362577 0.000000 0.000000 0.000000 0.000000 0.000000 0.000000 0.000000 
2.035083 17.027977 3.633476 5.972734 23.967509 25.694069 -8.677722 1.492755 5.158074 -8.485422 -3.593439 -39.527546 -3.791589 -0.649082 10.341135 -1.026828 -8.086851 1.649321 -0.895899 -0.000000 -43.649800 10.833918 -2.926974 3.264726 6.990388 5.522508 -11.535489 1.242617 -1.262921 28.146193 1.188533 11.945484 -0.193863 1.203800 -0.000000 -26.814900 -2.757553 -0.005747 -9.179464 -1.261028 -0.104564 -4.253275 -5.581694 -0.155418 1.750445 10.075127 -10.225305 -5.690629 -3.088493 -0.267555 0.568613 0.000000 0.000000 0.000000 0.429969 13.896674 -0.505966 -65.474402 15.705542 11.658382 -0.186955 -86.582761 -0.014490 6.060387 0.678027 0.030114 -0.138394 0.163463 -0.000000 0.000000 0.000000 0.000000 0.000000 0.000000 0.000000 12.865490 -4.462633 -0.332039 66.613022 24.413169 37.567327 179.698003 88.689586 -179.943049 9.937593 3.596910 0.350175 -0.128511 -0.374482 0.000000 0.000000 0.000000 0.000000 0.000000 0.000000 0.000000 
2.121436 16.964327 3.761689 6.069008 23.295738 25.338740 -8.677396 1.628661 5.133019 -8.795441 -3.482118 -39.880054 -3.732111 -0.411006 12.794528 -0.977777 -7.943397 0.800747 -0.794900 0.000000 -42.440401 11.023671 -3.002367 3.102657 6.498575 4.227684 -11.708762 1.080800 -1.400341 29.817711 1.180365 12.313504 0.802471 1.429900 0.000000 -36.773700 -3.043083 -0.177582 -9.205642 -1.332925 -0.247513 -4.254744 -5.724156 -0.293634 1.745504 10.486613 -10.418241 -5.639842 -3.126818 -0.271236 0.583788 0.000000 0.000000 0.000000 0.546269 13.878836 -0.532690 -65.255585 15.743326 11.453883 -0.187356 -86.612852 -0.015164 6.362126 0.621556 0.028262 -0.143553 0.163395 -0.000000 0.000000 0.000000 0.000000 0.000000 0.000000 0.000000 13.366672 -4.697535 -0.496563 67.022501 24.106171 36.420517 179.729906 88.951196 -179.944634 9.322202 3.943038 0.357939 -0.114380 -0.386083 0.000000 0.000000 0.000000 0.000000 0.000000 0.000000 0.000000 
2.201927 16.904705 3.890633 6.197058 22.646878 25.018112 -8.661909 1.768545 5.101623 -9.157512 -3.380285 -40.243775 -3.666626 -0.170576 15.387893 -0.911617 -7.698126 -0.246345 -0.665800 0.000001 -41.128300 11.226166 -3.057130 2.957324 5.956480 2.980104 -12.029248 0.906074 -1.533852 31.631393 1.160486 12.666595 1.789377 1.670800 0.000000 -44.806200 -3.366220 -0.381095 -9.243353 -1.409333 -0.417664 -4.254818 -5.865212 -0.459527 1.750050 10.911061 -10.612279 -5.586859 -3.160873 -0.274533 0.598962 0.000000 0.000000 0.000000 0.618966 13.887331 -0.553370 -64.969374 15.665665 11.263325 -0.192050 -86.563716 -0.015915 6.681245 0.588596 0.027714 -0.149433 0.163133 -0.000000 0.000000 0.000000 0.000000 0.000000 0.000000 0.000000 13.864686 -4.955711 -0.679044 67.532020 23.807385 35.297274 179.773219 89.322234 -179.947269 8.526442 4.269913 0.352734 -0.096181 -0.396787 0.000000 0.000000 0.000000 0.000000 0.000000 0.000000 0.000000 
2.276195 16.850774 4.019389 6.344758 22.007774 24.732232 -8.632495 1.905641 5.071106 -9.532590 -3.325203 -40.557764 -3.593671 0.056521 17.961308 -0.824785 -7.318047 -1.440663 -0.518200 -0.000000 -39.831800 11.435184 -3.088568 2.830170 5.386291 1.836696 -12.488389 0.717011 -1.664403 33.582666 1.126602 12.968901 2.793395 1.926900 -0.000000 -50.907400 -3.712226 -0.606890 -9.288144 -1.487771 -0.606846 -4.252990 -6.002427 -0.644780 1.762645 11.331140 -10.802455 -5.531721 -3.189370 -0.277336 0.613942 0.000000 0.000000 0.000000 0.638690 13.923712 -0.567016 -64.613756 15.447782 11.097606 -0.201811 -86.417909 -0.016727 7.010854 0.579154 0.028469 -0.155926 0.162687 -0.000000 0.000000 0.000000 0.000000 0.000000 0.000000 0.000000 14.335080 -5.229731 -0.879486 68.148391 23.502487 34.202367 179.826258 89.789106 -179.951023 7.557334 4.557051 0.332151 -0.074513 -0.406088 0.000000 0.000000 0.000000 0.000000 0.000000 0.000000 0.000000 
2.344241 16.804170 4.147035 6.499127 21.364214 24.479051 -8.591968 2.034366 5.046257 -9.890502 -3.336312 -40.769269 -3.515137 0.256761 20.370858 -0.715473 -6.788336 -2.729175 -0.366400 0.000001 -38.679600 11.643696 -3.095707 2.722271 4.812875 0.842599 -13.074099 0.512779 -1.792122 35.650188 1.076175 13.180360 3.853012 2.199601 -0.000000 -55.330700 -4.063687 -0.843947 -9.335054 -1.565425 -0.805625 -4.249204 -6.133946 -0.839791 1.780420 11.730638 -10.985025 -5.474258 -3.212009 -0.279620 0.628691 0.000000 0.000000 0.000000 0.594061 13.980078 -0.573417 -64.187457 15.078651 10.961384 -0.216896 -86.170664 -0.017579 7.341269 0.591235 0.030525 -0.162816 0.162058 -0.000000 0.000000 0.000000 0.000000 0.000000 0.000000 0.000000 14.759219 -5.512696 -1.094247 68.863411 23.180580 33.140018 -0.113911 89.671350 0.044104 6.430717 4.788308 0.295881 -0.050148 -0.413657 0.000000 0.000000 0.000000 0.000000 0.000000 0.000000 0.000000 
2.406177 16.766193 4.272892 6.654898 20.702383 24.254991 -8.541232 2.151584 5.029709 -10.218884 -3.423811 -40.831109 -3.435523 0.419319 22.495093 -0.582850 -6.103801 -4.059411 -0.226300 0.000000 -37.776400 11.848650 -3.078133 2.631429 4.250392 0.011113 -13.776424 0.291733 -1.916952 37.802336 1.005024 13.254144 5.031204 2.492200 0.000001 -58.771400 -4.412357 -1.082103 -9.377121 -1.641319 -1.004455 -4.242254 -6.258050 -1.034816 1.804251 12.098348 -11.151411 -5.416954 -3.228289 -0.281305 0.642392 0.000000 0.000000 0.000000 0.492794 14.069716 -0.571695 -63.701709 14.522935 10.876042 -0.238304 -85.800688 -0.018438 7.664300 0.618397 0.033781 -0.169994 0.161408 -0.000000 0.000000 0.000000 0.000000 0.000000 0.000000 0.000000 15.123839 -5.792192 -1.320882 69.658183 22.827902 32.107343 -0.050931 89.093289 0.038167 5.172117 4.952255 0.245312 -0.024159 -0.419354 0.000000 0.000000 0.000000 0.000000 0.000000 0.000000 0.000000 
2.462863 16.737818 4.396174 6.791301 20.008852 24.048352 -8.488137 2.253252 5.018992 -10.499788 -3.563330 -40.720913 -3.358366 0.539220 24.258959 -0.429029 -5.285863 -5.384652 -0.112801 0.000000 -37.187201 12.039118 -3.037658 2.558115 3.730465 -0.635132 -14.576664 0.060374 -2.037283 40.013164 0.912361 13.153356 6.287551 2.781200 0.000000 -61.116000 -4.731568 -1.308411 -9.407630 -1.710819 -1.193135 -4.232813 -6.373516 -1.219485 1.828163 12.420920 -11.301729 -5.358452 -3.239182 -0.282502 0.655611 0.000000 0.000000 0.000000 0.320598 14.163372 -0.563340 -63.159604 13.809397 10.828436 -0.264824 -85.337257 -0.019283 7.969474 0.655937 0.037836 -0.177129 0.160731 -0.000000 0.000000 0.000000 0.000000 0.000000 0.000000 0.000000 15.419045 -6.063971 -1.548818 70.497438 22.448000 31.115041 0.011036 88.509420 0.031319 3.814770 5.043739 0.183738 0.002602 -0.423157 0.000000 0.000000 0.000000 0.000000 0.000000 0.000000 0.000000 
2.515214 16.719556 4.516332 6.893066 19.271475 23.846567 -8.439319 2.337092 5.010235 -10.723540 -3.725945 -40.423241 -3.286311 0.614412 25.615746 -0.256840 -4.357023 -6.660579 -0.036000 0.000000 -36.921099 12.207712 -2.977319 2.500481 3.274843 -1.098216 -15.456558 -0.176258 -2.152091 42.250754 0.796665 12.836598 7.604088 3.041200 -0.000000 -62.635000 -5.002526 -1.511659 -9.419386 -1.770638 -1.362416 -4.220100 -6.478729 -1.384359 1.851957 12.691106 -11.431188 -5.301013 -3.244710 -0.283192 0.667854 0.000000 0.000000 0.000000 0.086211 14.263644 -0.548812 -62.581093 12.931246 10.826768 -0.296276 -84.785026 -0.020096 8.250308 0.695554 0.042089 -0.184105 0.160231 -0.000000 0.000000 0.000000 0.000000 0.000000 0.000000 0.000000 15.638125 -6.317990 -1.771220 71.340716 22.042815 30.167478 0.068122 87.956728 0.023781 2.401209 5.062765 0.115547 0.029086 -0.425182 0.000000 0.000000 0.000000 0.000000 0.000000 0.000000 0.000000 
2.564467 16.711503 4.633039 6.943436 18.480056 23.634837 -8.403155 2.401475 4.997809 -10.880858 -3.873700 -39.932556 -3.220007 0.646013 26.548404 -0.070757 -3.345758 -7.844614 -0.000400 -0.000000 -36.938700 12.346446 -2.901511 2.456462 2.904863 -1.387341 -16.394311 -0.411751 -2.260370 44.482183 0.657478 12.266277 8.939667 3.236500 0.000001 -63.497301 -5.204576 -1.681691 -9.405559 -1.816957 -1.504437 -4.204539 -6.572416 -1.521503 1.870647 12.903138 -11.537679 -5.243195 -3.245554 -0.283466 0.679800 0.000000 0.000000 0.000000 -0.207752 14.347117 -0.529342 -61.983639 11.925438 10.856863 -0.330926 -84.180440 -0.020859 8.501504 0.730469 0.045940 -0.190720 0.160028 -0.000000 0.000000 0.000000 0.000000 0.000000 0.000000 0.000000 15.777014 -6.546817 -1.978095 72.144404 21.620574 29.276918 0.117217 87.464931 0.015860 0.980919 5.013939 0.046031 0.054411 -0.425623 0.000000 0.000000 0.000000 0.000000 0.000000 0.000000 0.000000 
